<svg width="38" height="37" viewBox="0 0 38 37" fill="none" xmlns="http://www.w3.org/2000/svg">
<circle cx="19" cy="18.5523" r="18.1341" fill="#F5A602"/>
<g clip-path="url(#clip0_1392_165)">
<path d="M19 27.6192C13.9922 27.6192 9.93292 23.5599 9.93292 18.5521C9.93292 13.5444 13.9922 9.48511 19 9.48511C24.0077 9.48511 28.067 13.5444 28.067 18.5521C28.067 23.5599 24.0077 27.6192 19 27.6192ZM19 25.8058C20.9237 25.8058 22.7687 25.0416 24.129 23.6812C25.4894 22.3209 26.2536 20.4759 26.2536 18.5521C26.2536 16.6284 25.4894 14.7834 24.129 13.4231C22.7687 12.0627 20.9237 11.2985 19 11.2985C17.0762 11.2985 15.2312 12.0627 13.8709 13.4231C12.5105 14.7834 11.7463 16.6284 11.7463 18.5521C11.7463 20.4759 12.5105 22.3209 13.8709 23.6812C15.2312 25.0416 17.0762 25.8058 19 25.8058ZM19.9067 18.5521H23.5335V20.3656H18.0933V14.0186H19.9067V18.5521Z" fill="white"/>
</g>
<defs>
<clipPath id="clip0_1392_165">
<rect width="21.7609" height="21.7609" fill="white" transform="translate(8.11951 7.67163)"/>
</clipPath>
</defs>
</svg>
