<svg width="38" height="37" viewBox="0 0 38 37" fill="none" xmlns="http://www.w3.org/2000/svg">
<circle cx="19" cy="18.5523" r="18.1341" fill="black"/>
<g clip-path="url(#clip0_1392_155)">
<path d="M19 27.6197C13.9922 27.6197 9.93292 23.5604 9.93292 18.5526C9.93292 13.5449 13.9922 9.4856 19 9.4856C24.0077 9.4856 28.067 13.5449 28.067 18.5526C28.067 23.5604 24.0077 27.6197 19 27.6197ZM19 25.8063C20.9237 25.8063 22.7687 25.042 24.129 23.6817C25.4894 22.3214 26.2536 20.4764 26.2536 18.5526C26.2536 16.6288 25.4894 14.7839 24.129 13.4235C22.7687 12.0632 20.9237 11.299 19 11.299C17.0762 11.299 15.2312 12.0632 13.8709 13.4235C12.5105 14.7839 11.7463 16.6288 11.7463 18.5526C11.7463 20.4764 12.5105 22.3214 13.8709 23.6817C15.2312 25.042 17.0762 25.8063 19 25.8063ZM15.8265 20.366H20.8134C20.9336 20.366 21.0489 20.3183 21.1339 20.2333C21.219 20.1482 21.2667 20.0329 21.2667 19.9127C21.2667 19.7925 21.219 19.6771 21.1339 19.5921C21.0489 19.5071 20.9336 19.4593 20.8134 19.4593H17.1866C16.5854 19.4593 16.0088 19.2205 15.5837 18.7954C15.1586 18.3703 14.9198 17.7938 14.9198 17.1926C14.9198 16.5914 15.1586 16.0148 15.5837 15.5897C16.0088 15.1646 16.5854 14.9258 17.1866 14.9258H18.0933V13.1124H19.9067V14.9258H22.1734V16.7392H17.1866C17.0663 16.7392 16.951 16.787 16.866 16.872C16.781 16.957 16.7332 17.0723 16.7332 17.1926C16.7332 17.3128 16.781 17.4281 16.866 17.5131C16.951 17.5982 17.0663 17.6459 17.1866 17.6459H20.8134C21.4145 17.6459 21.9911 17.8847 22.4162 18.3098C22.8413 18.7349 23.0801 19.3115 23.0801 19.9127C23.0801 20.5139 22.8413 21.0904 22.4162 21.5155C21.9911 21.9406 21.4145 22.1794 20.8134 22.1794H19.9067V23.9929H18.0933V22.1794H15.8265V20.366Z" fill="white"/>
</g>
<defs>
<clipPath id="clip0_1392_155">
<rect width="21.7609" height="21.7609" fill="white" transform="translate(8.11951 7.67212)"/>
</clipPath>
</defs>
</svg>
