<svg width="38" height="37" viewBox="0 0 38 37" fill="none" xmlns="http://www.w3.org/2000/svg">
<circle cx="19" cy="18.5523" r="18.1341" fill="#9747FF"/>
<g clip-path="url(#clip0_1392_135)">
<path d="M23.5334 21.4942V27.7251C23.5334 27.8053 23.5122 27.884 23.4718 27.9534C23.4314 28.0227 23.3734 28.08 23.3036 28.1196C23.2338 28.1591 23.1548 28.1794 23.0746 28.1785C22.9943 28.1775 22.9158 28.1553 22.847 28.114L18.9999 25.8056L15.1527 28.114C15.0839 28.1553 15.0053 28.1775 14.925 28.1785C14.8447 28.1794 14.7656 28.159 14.6958 28.1193C14.626 28.0797 14.568 28.0222 14.5277 27.9528C14.4873 27.8833 14.4662 27.8044 14.4664 27.7241V21.4951C13.2932 20.5558 12.4408 19.2754 12.0268 17.8307C11.6129 16.386 11.6579 14.8484 12.1556 13.4304C12.6534 12.0124 13.5792 10.784 14.8053 9.91493C16.0313 9.04588 17.4971 8.5791 18.9999 8.5791C20.5027 8.5791 21.9684 9.04588 23.1945 9.91493C24.4206 10.784 25.3464 12.0124 25.8442 13.4304C26.3419 14.8484 26.3869 16.386 25.9729 17.8307C25.559 19.2754 24.7065 20.5558 23.5334 21.4951V21.4942ZM16.2798 22.5577V25.3232L18.9999 23.6911L21.72 25.3232V22.5577C20.8558 22.9073 19.9321 23.0865 18.9999 23.0854C18.0677 23.0865 17.144 22.9073 16.2798 22.5577ZM18.9999 21.272C20.4427 21.272 21.8265 20.6989 22.8467 19.6786C23.8669 18.6584 24.4401 17.2747 24.4401 15.8318C24.4401 14.389 23.8669 13.0052 22.8467 11.985C21.8265 10.9648 20.4427 10.3916 18.9999 10.3916C17.5571 10.3916 16.1733 10.9648 15.1531 11.985C14.1328 13.0052 13.5597 14.389 13.5597 15.8318C13.5597 17.2747 14.1328 18.6584 15.1531 19.6786C16.1733 20.6989 17.5571 21.272 18.9999 21.272Z" fill="white"/>
</g>
<defs>
<clipPath id="clip0_1392_135">
<rect width="21.7609" height="21.7609" fill="white" transform="translate(8.11945 7.67163)"/>
</clipPath>
</defs>
</svg>
