<svg width="38" height="37" viewBox="0 0 38 37" fill="none" xmlns="http://www.w3.org/2000/svg">
<circle cx="19" cy="18.5523" r="18.1341" fill="#34A853"/>
<g clip-path="url(#clip0_1392_145)">
<path d="M9.93297 27.6191C9.93297 25.6954 10.6972 23.8504 12.0575 22.4901C13.4178 21.1297 15.2628 20.3655 17.1866 20.3655C19.1104 20.3655 20.9554 21.1297 22.3157 22.4901C23.676 23.8504 24.4402 25.6954 24.4402 27.6191H22.6268C22.6268 26.1763 22.0537 24.7926 21.0334 23.7723C20.0132 22.7521 18.6294 22.1789 17.1866 22.1789C15.7438 22.1789 14.36 22.7521 13.3398 23.7723C12.3195 24.7926 11.7464 26.1763 11.7464 27.6191H9.93297ZM17.1866 19.4588C14.1809 19.4588 11.7464 17.0243 11.7464 14.0186C11.7464 11.0129 14.1809 8.57837 17.1866 8.57837C20.1923 8.57837 22.6268 11.0129 22.6268 14.0186C22.6268 17.0243 20.1923 19.4588 17.1866 19.4588ZM17.1866 17.6454C19.1904 17.6454 20.8134 16.0224 20.8134 14.0186C20.8134 12.0148 19.1904 10.3918 17.1866 10.3918C15.1828 10.3918 13.5598 12.0148 13.5598 14.0186C13.5598 16.0224 15.1828 17.6454 17.1866 17.6454ZM24.6977 21.0029C25.972 21.5768 27.0533 22.5065 27.8119 23.6802C28.5704 24.8539 28.9739 26.2217 28.9737 27.6191H27.1603C27.1605 26.571 26.858 25.5451 26.2891 24.6647C25.7201 23.7844 24.9091 23.0871 23.9533 22.6568L24.6968 21.0029H24.6977ZM24.0739 10.7662C24.9874 11.1428 25.7685 11.7822 26.318 12.6034C26.8675 13.4246 27.1607 14.3906 27.1603 15.3786C27.1607 16.6229 26.6958 17.8224 25.857 18.7415C25.0181 19.6605 23.866 20.2327 22.6268 20.3456V18.5204C23.2986 18.4242 23.9219 18.1151 24.4051 17.6386C24.8884 17.162 25.2061 16.5431 25.3117 15.8727C25.4173 15.2023 25.3052 14.5157 24.9918 13.9137C24.6785 13.3117 24.1804 12.826 23.5707 12.528L24.0739 10.7662Z" fill="white"/>
</g>
<defs>
<clipPath id="clip0_1392_145">
<rect width="21.7609" height="21.7609" fill="white" transform="translate(8.11957 7.67163)"/>
</clipPath>
</defs>
</svg>
